<svg xmlns="http://www.w3.org/2000/svg" width="256" height="256" viewBox="0 0 256 256"><rect x="8" y="8" width="240" height="240" rx="55" fill="#ffca45"/><path d="M48 177V78L83 103Q128 77 173 103L208 78V177Q128 231 48 177" fill="#252333"/><path d="M65 87L77 109 61 114M193 87L179 109 197 114" fill="#ed8096"/><ellipse cx="92" cy="142" rx="20" ry="25" fill="#f9d952"/><ellipse cx="164" cy="142" rx="20" ry="25" fill="#f9d952"/><ellipse cx="97" cy="145" rx="10" ry="19"/><ellipse cx="159" cy="145" rx="10" ry="19"/><path d="M98 176Q128 158 158 176Q147 207 128 193Q109 207 98 176" fill="#fff3d9"/><path d="M117 174L139 174 128 185Z" fill="#ef8797"/><path d="M62 218H194" stroke="#ee5353" stroke-width="17" stroke-linecap="round"/></svg>
